<svg width="15" height="16" viewBox="0 0 15 16" fill="none" xmlns="http://www.w3.org/2000/svg">
<path d="M6.37764 1.05762L7.12086 0.254913C7.43555 -0.0849711 7.94443 -0.0849711 8.25578 0.254913L14.764 7.2804C15.0787 7.62028 15.0787 8.16988 14.764 8.50615L8.25578 15.5352C7.94108 15.8751 7.43221 15.8751 7.12086 15.5352L6.37764 14.7325C6.05959 14.389 6.06629 13.8286 6.39103 13.4923L10.4252 9.3414H0.803482C0.358219 9.3414 0 8.95451 0 8.47361V7.31655C0 6.83565 0.358219 6.44876 0.803482 6.44876H10.4252L6.39103 2.29784C6.06294 1.96157 6.05624 1.40112 6.37764 1.05762Z" fill="black"/>
</svg>
