<svg width="24" height="24" viewBox="0 0 24 24" fill="none" xmlns="http://www.w3.org/2000/svg">
<path d="M21.3 13.92C21.019 14.2573 20.6674 14.5289 20.27 14.7155C19.8726 14.9021 19.439 14.9992 19 15H14.44L15 16.43C15.2329 17.0561 15.3105 17.7294 15.2261 18.392C15.1416 19.0547 14.8977 19.687 14.5152 20.2347C14.1327 20.7824 13.623 21.2292 13.0299 21.5366C12.4369 21.8441 11.778 22.0031 11.11 22C10.9176 21.9996 10.7295 21.9437 10.5681 21.839C10.4067 21.7344 10.2789 21.5854 10.2 21.41L7.35 15H5C4.20435 15 3.44129 14.6839 2.87868 14.1213C2.31607 13.5587 2 12.7956 2 12V4.99996C2 4.20431 2.31607 3.44124 2.87868 2.87864C3.44129 2.31603 4.20435 1.99996 5 1.99996H17.73C18.4318 2.00019 19.1113 2.24647 19.6503 2.69593C20.1893 3.1454 20.5537 3.76961 20.68 4.45996L21.95 11.46C22.0286 11.8926 22.011 12.3372 21.8987 12.7623C21.7864 13.1874 21.582 13.5826 21.3 13.92ZM7 3.99996H5C4.73478 3.99996 4.48043 4.10531 4.29289 4.29285C4.10536 4.48038 4 4.73474 4 4.99996V12C4 12.2652 4.10536 12.5195 4.29289 12.7071C4.48043 12.8946 4.73478 13 5 13H7V3.99996ZM20 11.82L18.73 4.81996C18.6874 4.587 18.5635 4.37672 18.3804 4.22655C18.1973 4.07639 17.9668 3.99609 17.73 3.99996H9V13.79L11.72 19.91C12 19.8283 12.26 19.6895 12.4837 19.5024C12.7073 19.3152 12.8897 19.0837 13.0194 18.8225C13.1491 18.5612 13.2232 18.276 13.2371 17.9847C13.2509 17.6933 13.2043 17.4023 13.1 17.13L12.57 15.7C12.4571 15.3977 12.4189 15.0726 12.4589 14.7524C12.4988 14.4322 12.6156 14.1265 12.7993 13.8612C12.983 13.596 13.2282 13.3791 13.5139 13.2291C13.7996 13.0791 14.1173 13.0005 14.44 13H19C19.1469 13.0002 19.2921 12.9681 19.4252 12.9058C19.5582 12.8436 19.676 12.7528 19.77 12.64C19.8663 12.5286 19.9369 12.3974 19.9767 12.2557C20.0164 12.1139 20.0244 11.9651 20 11.82Z" fill="black"/>
</svg>
