<svg width="32" height="32" viewBox="0 0 32 32" fill="none" xmlns="http://www.w3.org/2000/svg">
<mask id="mask0" style="mask-type:alpha" maskUnits="userSpaceOnUse" x="0" y="0" width="32" height="32">
<circle cx="16" cy="16" r="16" fill="#C4C4C4"/>
</mask>
<g mask="url(#mask0)">
<path fill-rule="evenodd" clip-rule="evenodd" d="M16.026 34.2857H-0.393999C-0.895893 34.2855 -1.37716 34.086 -1.73199 33.7311C-2.08681 33.3761 -2.28613 32.8948 -2.28613 32.3929V1.89285C-2.28623 1.64425 -2.23733 1.39807 -2.14224 1.16838C-2.04715 0.938682 -1.90773 0.729986 -1.73194 0.554199C-1.55616 0.378413 -1.34745 0.238982 -1.11776 0.143891C-0.888062 0.0487988 -0.64188 -9.37295e-05 -0.39328 1.34895e-07H30.1074C30.356 1.17186e-07 30.6021 0.0489639 30.8317 0.144098C31.0613 0.239231 31.2699 0.378673 31.4456 0.55445C31.6213 0.730227 31.7607 0.938903 31.8557 1.16855C31.9508 1.3982 31.9997 1.64431 31.9996 1.89285V32.3929C31.9996 32.8948 31.8002 33.3761 31.4454 33.7311C31.0906 34.086 30.6093 34.2855 30.1074 34.2857H21.3703V21.0086H25.8274L26.4946 15.8343H21.3703V12.5307C21.3703 11.0321 21.7867 10.0114 23.9346 10.0114L26.6746 10.01V5.38214C26.201 5.31929 24.5746 5.17857 22.6817 5.17857C18.7317 5.17857 16.0267 7.59 16.0267 12.0179V15.8343H11.5589V21.0086H16.0267L16.026 34.2857Z" fill="#004989"/>
</g>
</svg>
