<svg width="30" height="31" viewBox="0 0 30 31" fill="none" xmlns="http://www.w3.org/2000/svg">
<path d="M29.9976 15.6457C30.0158 14.5935 29.9072 13.543 29.6742 12.5167H15.3047V18.1965H23.7394C23.5796 19.1924 23.2201 20.1457 22.6824 20.9991C22.1447 21.8524 21.4399 22.5882 20.6105 23.1621L20.5811 23.3524L25.1247 26.8721L25.4393 26.9036C28.3301 24.2336 29.9971 20.3052 29.9971 15.6457" fill="#4285F4"/>
<path d="M15.3054 30.6115C19.4377 30.6115 22.9068 29.2509 25.4409 26.9041L20.6112 23.1627C19.3189 24.0642 17.5843 24.6935 15.3054 24.6935C13.37 24.6822 11.4873 24.0617 9.92439 22.92C8.3615 21.7784 7.1978 20.1736 6.59839 18.3333L6.41902 18.3485L1.69456 22.0047L1.63281 22.1765C2.90522 24.7123 4.85795 26.8443 7.27265 28.3339C9.68734 29.8236 12.4688 30.6121 15.306 30.6115" fill="#34A853"/>
<path d="M6.59807 18.3331C6.2633 17.3588 6.09056 16.3363 6.08672 15.3061C6.09289 14.2777 6.25926 13.2565 6.57984 12.2792L6.57131 12.0763L1.78893 8.36133L1.6325 8.43572C0.559109 10.5668 0 12.9198 0 15.306C0 17.6922 0.559109 20.0451 1.6325 22.1763L6.59807 18.3331Z" fill="#FBBC05"/>
<path d="M15.305 5.91906C17.4981 5.88501 19.6192 6.70176 21.223 8.19793L25.5426 3.98041C22.7722 1.38141 19.1034 -0.0446193 15.305 0.00106468C12.4679 0.00038965 9.68642 0.788927 7.27173 2.27851C4.85704 3.76808 2.90429 5.89998 1.63184 8.43581L6.58095 12.2793C7.18626 10.4393 8.35382 8.83573 9.91902 7.69464C11.4842 6.55354 13.3681 5.9325 15.305 5.91906Z" fill="#EB4335"/>
</svg>
