<svg width="204" height="101" viewBox="0 0 204 101" fill="none" xmlns="http://www.w3.org/2000/svg">
<path d="M28.2129 19.7477L38.4215 37.5407L45.738 24.7067H36.7079L38.3747 27.6285H40.7258L38.3893 31.7266L33.228 22.6724H49.2179L50.8847 19.7477H28.2129Z" fill="#638BC6"/>
<path d="M56.5583 19.7477L38.3898 51.6129L21.8882 22.6724L24.2159 22.6783L38.4396 47.4499L54.2335 19.7477H50.8852L49.2184 22.6724V22.6783L38.3811 41.7066L49.2184 22.6783L38.3898 41.6683L25.8886 19.7477H16.876L38.3898 57.483L59.9037 19.7477H56.5583Z" fill="#004989"/>
<path d="M74.5514 31.7739V46.0614H69.8316V31.7739H65.9248V27.7406H78.4582V31.7739H74.5514Z" fill="#032833"/>
<path d="M92.1965 40.0969V40.5598H82.9704C82.9704 42.4094 83.8837 43.3341 85.7104 43.3341C86.1318 43.3609 86.5522 43.2672 86.9231 43.0638C87.294 42.8603 87.6004 42.5555 87.8071 42.1843H92.0327C91.8835 42.8594 91.5973 43.496 91.1922 44.0542C90.7871 44.6123 90.2718 45.0799 89.6787 45.4274C88.4851 46.1361 87.1185 46.4936 85.7338 46.4593C83.6264 46.4593 81.9245 45.8933 80.628 44.7611C79.2634 43.568 78.5811 41.9229 78.5811 39.8257C78.5811 37.7717 79.2166 36.1423 80.4877 34.9374C81.7588 33.7325 83.4071 33.1428 85.4326 33.1684C87.5595 33.1684 89.2166 33.7836 90.4039 35.014C91.5911 36.2445 92.1887 37.9387 92.1965 40.0969ZM83.0493 38.0154H88.1317C88.0342 37.4421 87.7197 36.9295 87.2544 36.5855C86.7915 36.2285 86.2231 36.0385 85.6402 36.0459C84.1762 36.0459 83.3125 36.7024 83.0493 38.0154Z" fill="#032833"/>
<path d="M103.119 33.9055V37.6498C102.473 37.123 101.677 36.8191 100.847 36.783C100.249 36.794 99.6675 36.9809 99.1737 37.3207C98.6798 37.6605 98.2953 38.1384 98.0672 38.6957C97.8392 39.2529 97.7776 39.8652 97.8901 40.4572C98.0026 41.0493 98.2843 41.5953 98.7005 42.0281C98.9943 42.3128 99.342 42.5351 99.7228 42.6814C100.104 42.8278 100.51 42.8954 100.917 42.8801C101.733 42.8931 102.522 42.5878 103.119 42.0281V45.7636C102.154 46.2473 101.088 46.4919 100.011 46.477C98.2553 46.5172 96.5555 45.8559 95.282 44.6373C94.6374 44.047 94.1261 43.3241 93.7825 42.5174C93.4389 41.7107 93.2712 40.839 93.2906 39.9613C93.2906 37.9781 93.9505 36.3526 95.2703 35.0848C95.9292 34.4555 96.7051 33.9637 97.5532 33.6378C98.4014 33.312 99.3051 33.1585 100.212 33.1861C101.226 33.1702 102.228 33.4179 103.119 33.9055Z" fill="#032833"/>
<path d="M105.826 25.889H110.213V35.1673H110.259C110.708 34.5364 111.302 34.0259 111.992 33.6805C112.681 33.3351 113.444 33.1653 114.213 33.1861C115.773 33.1861 116.95 33.6775 117.745 34.6602C118.49 35.5722 118.863 36.8263 118.863 38.4223V46.0525H114.476V39.6665C114.476 37.7009 113.817 36.7182 112.499 36.7182C110.977 36.7182 110.215 37.7009 110.215 39.6665V46.0613H105.829L105.826 25.889Z" fill="#032833"/>
<path d="M125.079 27.7406L129.466 38.8763L133.878 27.7406H139.011L131.255 46.0614H127.585L119.947 27.7406H125.079Z" fill="#032833"/>
<path d="M142.298 26.3283C142.867 26.329 143.417 26.5283 143.856 26.8922C144.294 27.2561 144.595 27.7621 144.705 28.3241C144.815 28.886 144.729 29.4691 144.461 29.9741C144.192 30.4791 143.759 30.8747 143.234 31.0936C142.709 31.3124 142.125 31.341 141.581 31.1745C141.037 31.0079 140.568 30.6565 140.252 30.1801C139.937 29.7037 139.795 29.1317 139.851 28.5616C139.907 27.9916 140.157 27.4586 140.558 27.0536C140.784 26.8193 141.055 26.6341 141.354 26.5094C141.653 26.3847 141.975 26.323 142.298 26.3283ZM144.5 33.59V46.0613H140.114V33.59H144.5Z" fill="#032833"/>
<path d="M160.092 40.0969V40.5598H150.866C150.866 42.4094 151.78 43.3341 153.609 43.3341C154.03 43.3607 154.45 43.2668 154.82 43.0634C155.191 42.86 155.496 42.5553 155.703 42.1843H159.928C159.781 42.8581 159.497 43.494 159.094 44.052C158.692 44.6101 158.179 45.0783 157.589 45.4274C156.396 46.1361 155.031 46.4936 153.647 46.4593C151.536 46.4593 149.833 45.8933 148.538 44.7611C147.174 43.568 146.491 41.9229 146.491 39.8257C146.491 37.7717 147.127 36.1423 148.398 34.9374C149.669 33.7325 151.316 33.1428 153.34 33.1684C155.465 33.1684 157.122 33.7836 158.311 35.014C159.5 36.2445 160.094 37.9388 160.092 40.0969ZM150.936 38.0066H156.021C155.922 37.4338 155.608 36.9217 155.144 36.5766C154.682 36.22 154.115 36.0301 153.533 36.0371C152.069 36.043 151.203 36.7024 150.936 38.0154V38.0066Z" fill="#032833"/>
<path d="M165.142 33.59L168.227 40.3534L171.333 33.59H173.936L177.053 40.3534L180.161 33.59H185.01L178.556 46.0613H175.714L172.643 39.236L169.587 46.0613H166.736L160.271 33.59H165.142Z" fill="#032833"/>
</svg>
