<svg id="Layer_1" data-name="Layer 1" xmlns="http://www.w3.org/2000/svg" viewBox="0 0 305.91 98.96"><defs><style>.cls-1{fill:#fff;}</style></defs><polygon class="cls-1" points="67.08 68.68 43.23 27.19 46.59 27.2 67.15 62.71 89.98 23 85.14 23 52.37 23 67.12 48.5 77.7 30.11 64.65 30.11 67.06 34.3 70.45 34.3 67.08 40.17 59.62 27.19 82.73 27.19 82.73 27.2 67.08 54.42 49.01 23 35.99 23 67.08 77.09 98.17 23 93.33 23 67.08 68.68"/><polygon class="cls-1" points="108.31 64.66 114.66 64.66 114.66 42.87 120.67 42.87 120.67 37.62 102.3 37.62 102.3 42.87 108.31 42.87 108.31 64.66"/><path class="cls-1" d="M131.75,45.92a10.26,10.26,0,0,0-7.29,2.58,9.36,9.36,0,0,0-2.79,7.13,9.06,9.06,0,0,0,3,7.19,11.21,11.21,0,0,0,7.56,2.47,11,11,0,0,0,5.83-1.5,7.18,7.18,0,0,0,3.27-4.13h-5.66a3.89,3.89,0,0,1-3.48,1.76c-3.05,0-4.66-1.62-4.66-4.69v-.45h14.19V56a10.22,10.22,0,0,0-2.63-7.43A9.84,9.84,0,0,0,131.75,45.92Zm-4.22,7.37.11-.54c.45-2.2,2-3.36,4.44-3.36a4.44,4.44,0,0,1,2.75.91,3.9,3.9,0,0,1,1.51,2.46l.1.53Z"/><path class="cls-1" d="M146.6,48.7a9.39,9.39,0,0,0-2.9,7.11,9,9,0,0,0,2.91,6.8,9.85,9.85,0,0,0,7,2.68,10.06,10.06,0,0,0,4.31-.91V59.87a5.31,5.31,0,0,1-2.93.84,5.12,5.12,0,0,1-3.73-1.43,5.12,5.12,0,0,1,3.62-8.77,5.92,5.92,0,0,1,3,.93V46.85a8.79,8.79,0,0,0-4-.93A10.19,10.19,0,0,0,146.6,48.7Z"/><path class="cls-1" d="M174.07,45.92a6.74,6.74,0,0,0-5.72,2.85l-.13.18-.75,1.18V37.62h-5.85v27h5.85v-9.3c0-4.1,2.15-5,4-5,1.59,0,3.49.86,3.49,5v9.3h5.85V53.47A8.39,8.39,0,0,0,179.16,48,6.15,6.15,0,0,0,174.07,45.92Z"/><polygon class="cls-1" points="192.51 37.62 185.6 37.62 196.97 64.66 202.02 64.66 213.56 37.62 206.65 37.62 199.56 55.37 192.51 37.62"/><path class="cls-1" d="M218,37.62a3.34,3.34,0,0,0-2.36,5.69,3.34,3.34,0,0,0,4.72-4.72A3.2,3.2,0,0,0,218,37.62Z"/><rect class="cls-1" x="215.08" y="46.54" width="5.85" height="18.12"/><path class="cls-1" d="M233.85,45.92a10.29,10.29,0,0,0-7.3,2.57,9.36,9.36,0,0,0-2.79,7.13,9.05,9.05,0,0,0,3,7.19,11.19,11.19,0,0,0,7.56,2.48,11,11,0,0,0,5.82-1.51,7.11,7.11,0,0,0,3.27-4.13h-5.66a3.87,3.87,0,0,1-3.47,1.76c-3.05,0-4.67-1.62-4.67-4.69v-.45H243.8V56a10.22,10.22,0,0,0-2.62-7.43A9.86,9.86,0,0,0,233.85,45.92Zm-4.23,7.36.11-.54c.45-2.2,2-3.36,4.44-3.36a4.48,4.48,0,0,1,2.75.91,3.93,3.93,0,0,1,1.51,2.46l.1.53Z"/><polygon class="cls-1" points="274.18 46.54 269.12 57.47 264.03 46.54 260.61 46.54 255.54 57.48 250.51 46.54 244.05 46.54 253.52 64.66 257.34 64.66 262.33 53.61 267.34 64.66 271.15 64.66 280.61 46.54 274.18 46.54"/></svg>