<svg id="Layer_1" data-name="Layer 1" xmlns="http://www.w3.org/2000/svg" xmlns:xlink="http://www.w3.org/1999/xlink" viewBox="0 0 295.09 113.72"><defs><style>.cls-1{fill:url(#linear-gradient);}</style><linearGradient id="linear-gradient" x1="36.08" y1="58.91" x2="78.16" y2="16.83" gradientUnits="userSpaceOnUse"><stop offset="0" stop-color="#0074f5"/><stop offset="1" stop-color="#03aaff"/></linearGradient></defs><polygon class="cls-1" points="57.12 71.64 33.56 30.65 36.88 30.66 57.19 65.75 79.75 26.51 74.97 26.51 42.59 26.51 57.17 51.71 67.62 33.53 54.72 33.53 57.1 37.67 60.46 37.67 57.12 43.48 49.75 30.65 72.59 30.65 72.58 30.66 57.12 57.55 39.27 26.51 26.4 26.51 57.12 79.95 87.84 26.51 83.06 26.51 57.12 71.64"/><polygon points="98.35 67.85 104.71 67.85 104.71 46.06 110.72 46.06 110.72 40.81 92.34 40.81 92.34 46.06 98.35 46.06 98.35 67.85"/><path d="M121.79,49.11a10.27,10.27,0,0,0-7.29,2.58,9.33,9.33,0,0,0-2.79,7.13,9,9,0,0,0,3,7.18,11.13,11.13,0,0,0,7.55,2.48A10.89,10.89,0,0,0,128.09,67a7.13,7.13,0,0,0,3.27-4.12H125.7a3.89,3.89,0,0,1-3.47,1.75c-3,0-4.67-1.62-4.67-4.68v-.45h14.19v-.26a10.21,10.21,0,0,0-2.62-7.42A9.84,9.84,0,0,0,121.79,49.11Zm-4.22,7.37.11-.54c.45-2.2,2-3.37,4.44-3.37a4.45,4.45,0,0,1,2.75.92A3.9,3.9,0,0,1,126.38,56l.1.53Z"/><path d="M136.64,51.88a9.46,9.46,0,0,0-2.9,7.12,9,9,0,0,0,2.92,6.8,9.84,9.84,0,0,0,7,2.68,10.13,10.13,0,0,0,4.31-.92v-4.5a5.31,5.31,0,0,1-2.94.84,5.14,5.14,0,0,1-3.73-1.43,5.12,5.12,0,0,1,3.62-8.77,6,6,0,0,1,3.05.93V50a8.7,8.7,0,0,0-4-.93A10.24,10.24,0,0,0,136.64,51.88Z"/><path d="M164.12,49.11A6.76,6.76,0,0,0,158.39,52l-.13.17-.75,1.19V40.81h-5.85v27h5.85V58.54c0-4.09,2.16-4.95,4-4.95,1.6,0,3.49.86,3.49,4.95v9.31h5.86V56.66a8.37,8.37,0,0,0-1.62-5.45A6.13,6.13,0,0,0,164.12,49.11Z"/><polygon points="182.55 40.81 175.64 40.81 187.01 67.85 192.06 67.85 203.6 40.81 196.7 40.81 189.6 58.55 182.55 40.81"/><path d="M208,40.81a3.34,3.34,0,0,0-2.36,5.69A3.34,3.34,0,1,0,208,40.81Z"/><rect x="205.13" y="49.73" width="5.85" height="18.12"/><path d="M223.89,49.1a10.26,10.26,0,0,0-7.29,2.58,9.35,9.35,0,0,0-2.79,7.13,9.06,9.06,0,0,0,3,7.19,11.21,11.21,0,0,0,7.56,2.47,11,11,0,0,0,5.83-1.5,7.18,7.18,0,0,0,3.27-4.13H227.8a3.91,3.91,0,0,1-3.48,1.76c-3,0-4.66-1.62-4.66-4.69v-.45h14.19V59.2a10.22,10.22,0,0,0-2.63-7.42A9.8,9.8,0,0,0,223.89,49.1Zm-4.22,7.37.11-.54c.45-2.2,2-3.36,4.44-3.36a4.44,4.44,0,0,1,2.75.91,3.9,3.9,0,0,1,1.51,2.46l.1.53Z"/><polygon points="264.22 49.73 259.16 60.66 254.08 49.73 250.65 49.73 245.58 60.67 240.56 49.73 234.09 49.73 243.57 67.85 247.39 67.85 252.38 56.8 257.39 67.85 261.2 67.85 270.65 49.73 264.22 49.73"/></svg>